<?xml version="1.0" encoding="UTF-8"?>
<svg id="Live" xmlns="http://www.w3.org/2000/svg" viewBox="0 0 100 100">
  <defs>
    <style>
      .cls-1 {
        fill: #d34798;
      }

      .cls-1, .cls-2 {
        stroke-width: 0px;
      }

      .cls-2 {
        fill: #f6d809;
      }
    </style>
  </defs>
  <g id="p_._g_baselined_tight" data-name="p . g baselined tight">
    <g>
      <path class="cls-2" d="m6.83,88.34V26.6H.22v-13.31h13.67v8.58h3.75c1.85-3.1,4.35-5.48,7.5-7.15,3.16-1.67,6.97-2.5,11.44-2.5,5.48,0,10.12,1.15,13.94,3.44,3.81,2.29,6.7,5.53,8.67,9.69s2.95,9.08,2.95,14.74-.97,10.57-2.9,14.74c-1.94,4.17-4.72,7.4-8.35,9.69-3.63,2.29-8.01,3.44-13.13,3.44-4.05,0-7.54-.78-10.45-2.32-2.92-1.55-5.18-3.72-6.79-6.52h-.36v29.22H6.83Zm27.34-31.9c4.83,0,8.47-1.44,10.95-4.33,2.47-2.89,3.71-6.89,3.71-12.02s-1.24-9.13-3.71-12.02c-2.47-2.89-6.12-4.33-10.95-4.33-4.23,0-7.62,1.21-10.18,3.62-2.56,2.41-3.84,5.67-3.84,9.78v5.9c0,4.11,1.28,7.37,3.84,9.78,2.56,2.41,5.96,3.62,10.18,3.62Z"/>
      <path class="cls-1" d="m31.67,47.51v-13.68h13.68v13.68h-13.68Z"/>
      <path class="cls-1" d="m59.02,74.87h13.68v-13.68h-13.68v-27.35h13.68v27.35h13.68v-27.35h-13.68v-13.68h27.35v54.7h-13.68v13.68h-27.35v-13.68Z"/>
    </g>
  </g>
</svg>