<?xml version="1.0" encoding="utf-8"?>
<!-- Generator: Adobe Illustrator 28.0.0, SVG Export Plug-In . SVG Version: 6.00 Build 0)  -->
<svg version="1.1" id="Layer_1" xmlns="http://www.w3.org/2000/svg" xmlns:xlink="http://www.w3.org/1999/xlink" x="0px" y="0px"
	 viewBox="0 0 800 800" style="enable-background:new 0 0 800 800;" xml:space="preserve">
<style type="text/css">
	.st0{fill-rule:evenodd;clip-rule:evenodd;fill:#CCCCCC;}
</style>
<path class="st0" d="M711.1,0H88.9C39.8,0,0,39.8,0,88.9v622.2C0,760.2,39.8,800,88.9,800h622.2c49.1,0,88.9-39.8,88.9-88.9V88.9
	C800,39.8,760.2,0,711.1,0z M704.1,266.8v398.6c0,16.3-19.5,38.7-34.4,38.7H118.7c-14.9,0-34.4-22.5-34.4-38.7V266.7
	c0-7.1-0.2-16.3,13.3-8.5l264.8,156.1c9.3,5.7,20.2,8.4,31.1,7.7c11.3,0,19.5-0.9,31.2-7.7l266.1-156
	C704.3,250.4,704.1,259.7,704.1,266.8z M683,173c-16.8,10.1-249.5,150.9-258.2,156s-19.9,7.7-31.2,7.7c-10.9,0.2-21.6-2.5-31.1-7.7
	L104,173c-33.3-19-29.4-92.6,9.8-92.6h561.4C717.7,80.4,715.7,155.9,683,173z"/>
</svg>
